<?xml version="1.0" encoding="utf-8"?>
<!-- Generator: Adobe Illustrator 24.1.0, SVG Export Plug-In . SVG Version: 6.00 Build 0)  -->
<svg version="1.1" id="Layer_1" xmlns="http://www.w3.org/2000/svg" xmlns:xlink="http://www.w3.org/1999/xlink" x="0px" y="0px"
	 viewBox="0 0 1034.9 1020" style="enable-background:new 0 0 1034.9 1020;" xml:space="preserve">
<style type="text/css">
	.st0{fill-rule:evenodd;clip-rule:evenodd;fill:#000000;}
	.st1{fill-rule:evenodd;clip-rule:evenodd;fill:#000000;}
	.st2{fill:#000000;}
</style>
<g>
	<path class="st0" d="M508.7,27.8c146.9,0,278.2,67.1,365.5,172.7C794.7,118.1,683.7,66.9,560.8,66.9c-227.3,0-414,175-435.3,398.7
		l-90.6,90.6c-1.5-15.7-2.3-31.7-2.3-47.8C32.5,243,245.7,27.8,508.7,27.8L508.7,27.8z M155.7,675.1
		c65.2,161.2,222,274.7,405.1,274.7c122.9,0,233.9-51.2,313.4-133.6C786.8,921.8,655.5,989,508.7,989
		c-211.2,0-390.3-138.8-452.6-331.1C90,661.7,123.2,667.5,155.7,675.1L155.7,675.1z"/>
	<path class="st1" d="M557.1,104.6c197.3,0,361.5,141.5,396.8,328.5l-68.6,44.2C869.6,286.9,710,137.3,515.5,137.3
		c-113.8,0-215.7,51.3-283.8,132C305.3,169.4,423.6,104.6,557.1,104.6L557.1,104.6z"/>
	<path class="st0" d="M855.9,591.7c-39.8,198.1-484.8,389.4-405,215.6l53.9,29c0,0-64.1-79.3-154.5-83.2l67,36.1
		c-120.9,142.8,262.1,274.8,537.3-131.4l2.3,1.6l46.9,37.8l-27.4-233.2L805.7,574L855.9,591.7L855.9,591.7z"/>
	<path class="st1" d="M716,293.1c-105-6.6-210.1-13.2-315.1-19.8C510.7,422.9,566,588.4,567.4,769.7c21.7-143.8,20-287-53.5-428.1
		c61.1,0.3,122.2,0.7,183.3,1c51.3,58.8,72.7,155.5,84.2,264.6C799.3,489.5,774.8,385.7,716,293.1L716,293.1z"/>
	<path class="st1" d="M311.3,419.9l105-52.5l-32.7-46.6c-70,26.1-140.1,52.2-210.1,78.3C321,488.3,436.9,620.7,534.2,778.6
		C489.6,641.9,424.6,517,311.3,419.9L311.3,419.9z"/>
	<path class="st1" d="M237.9,495.2l-52.5-35.7L27.8,617.1c164,12.4,321.9,68.9,472.7,176.4c-91.4-107.6-201.6-181.4-330-223
		L237.9,495.2L237.9,495.2z"/>
	<path class="st2" d="M732.4,537.6c-1.6-12-6.6-21.1-15.2-27.3c-8.6-6.2-21.6-10.4-39-12.5l-5.5-42.2c10.8,0.9,21.5,4.3,32.1,10.3
		l9.7-22.5c-6.8-3.8-13.8-6.7-20.9-8.6c-7.1-1.9-14.8-2.9-23.1-2.9l-1.7-13.3l-19.3,2.5l1.7,12.9c-6.9,1.5-13,3.7-18.5,6.7
		c-5.4,3-10,6.6-13.6,10.8c-3.7,4.2-6.3,9-7.9,14.3c-1.6,5.3-2,11-1.2,16.9c0.8,6.2,2.5,11.6,5,16.2c2.5,4.6,6,8.4,10.4,11.5
		c4.4,3.1,9.7,5.6,16,7.5c6.3,1.9,13.6,3.4,22,4.4l5.6,43.6c-7.4-0.2-14.4-1.6-21.1-3.9c-6.6-2.4-13.5-5.8-20.5-10.1L616,573.9
		c8.3,5.1,17.2,8.9,26.5,11.5c9.3,2.6,18.9,3.8,28.8,3.7l2.9,22.2l19.3-2.5l-2.8-22c7-1.5,13.3-3.8,18.8-6.8
		c5.5-3,10.1-6.7,13.7-10.9c3.7-4.2,6.3-9,8-14.4C732.8,549.3,733.2,543.6,732.4,537.6L732.4,537.6z M660.1,495.4
		c-8.9-1.4-15-3.5-18.2-6.3c-3.2-2.8-5.2-6.6-5.8-11.3c-0.6-4.9,0.6-9.3,3.7-13.2c3.1-3.9,8.2-6.7,15.2-8.2L660.1,495.4L660.1,495.4
		z M706.4,542.5c0.7,5.3-0.6,10-4,13.8c-3.3,3.9-8.5,6.6-15.6,8.1l-5.2-40.2c4.5,0.8,8.2,1.7,11.2,2.7c3,1,5.5,2.3,7.4,3.8
		c1.9,1.5,3.4,3.2,4.3,5.1C705.5,537.8,706.1,540,706.4,542.5L706.4,542.5z"/>
</g>
</svg>
